<?xml version="1.0" encoding="UTF-8" standalone="no"?>
<svg
   xmlns:dc="http://purl.org/dc/elements/1.1/"
   xmlns:cc="http://creativecommons.org/ns#"
   xmlns:rdf="http://www.w3.org/1999/02/22-rdf-syntax-ns#"
   xmlns:svg="http://www.w3.org/2000/svg"
   xmlns="http://www.w3.org/2000/svg"
   xmlns:sodipodi="http://sodipodi.sourceforge.net/DTD/sodipodi-0.dtd"
   xmlns:inkscape="http://www.inkscape.org/namespaces/inkscape"
   viewBox="0 0 100 99.999977"
   height="99.999977"
   width="100"
   xml:space="preserve"
   version="1.1"
   id="svg2"
   sodipodi:docname="OEP_logo_2_no_text_100px.svg"
   inkscape:version="0.92.4 (5da689c313, 2019-01-14)"><sodipodi:namedview
     pagecolor="#ffffff"
     bordercolor="#666666"
     borderopacity="1"
     objecttolerance="10"
     gridtolerance="10"
     guidetolerance="10"
     inkscape:pageopacity="0"
     inkscape:pageshadow="2"
     inkscape:window-width="1920"
     inkscape:window-height="1147"
     id="namedview4658"
     showgrid="false"
     fit-margin-top="0"
     fit-margin-left="0"
     fit-margin-right="0"
     fit-margin-bottom="0"
     inkscape:zoom="1.3798942"
     inkscape:cx="155.05941"
     inkscape:cy="84.174704"
     inkscape:window-x="-8"
     inkscape:window-y="-8"
     inkscape:window-maximized="1"
     inkscape:current-layer="svg2" /><metadata
     id="metadata8"><rdf:RDF><cc:Work
         rdf:about=""><dc:format>image/svg+xml</dc:format><dc:type
           rdf:resource="http://purl.org/dc/dcmitype/StillImage" /><dc:title></dc:title></cc:Work></rdf:RDF></metadata><defs
     id="defs6"><clipPath
       id="clipPath16"
       clipPathUnits="userSpaceOnUse"><path
         style="clip-rule:evenodd"
         id="path18"
         d="M 0,1.8311e-4 H 567 V 567.00018 H 0 Z"
         inkscape:connector-curvature="0" /></clipPath></defs><g
     transform="matrix(0.17636684,0,0,-0.17636684,0,100.00001)"
     id="g10"><g
       id="g12"><g
         clip-path="url(#clipPath16)"
         id="g14"><path
           id="path20"
           style="fill:#ffffff;fill-opacity:1;fill-rule:evenodd;stroke:none"
           d="M 0,6.1035e-5 H 567 V 567.00006 H 0 Z"
           inkscape:connector-curvature="0" /></g></g><path
       id="path22"
       style="fill:#1f567d;fill-opacity:1;fill-rule:evenodd;stroke:none"
       d="m 56.76,283.5 c 0,125.23 101.51,226.74 226.74,226.74 125.23,0 226.74,-101.51 226.74,-226.74 C 510.24,158.27 408.73,56.76 283.5,56.76 158.27,56.76 56.76,158.27 56.76,283.5 Z"
       inkscape:connector-curvature="0" /><path
       id="path24"
       style="fill:#ffffff;fill-opacity:1;fill-rule:evenodd;stroke:none"
       d="m 127.08,284.1 c 0,86.12 69.79,155.94 155.88,155.94 86.09,0 155.88,-69.82 155.88,-155.94 0,-86.12 -69.79,-155.94 -155.88,-155.94 -86.09,0 -155.88,69.82 -155.88,155.94 z"
       inkscape:connector-curvature="0" /><path
       id="path26"
       style="fill:#ffffff;fill-opacity:1;fill-rule:evenodd;stroke:none"
       d="M 113.52,56.76 283.56,283.56 453.6,56.76 Z"
       inkscape:connector-curvature="0" /><path
       id="path28"
       style="fill:#1f567d;fill-opacity:0.41176004;fill-rule:evenodd;stroke:none"
       d="m 226.86,266.79 16.59,16.59 h 23.46 l 16.59,-16.59 v -23.46 l -16.59,-16.59 h -23.46 l -16.59,16.59 z"
       inkscape:connector-curvature="0" /><path
       id="path30"
       style="fill:none;stroke:#ffffff;stroke-width:3;stroke-linecap:butt;stroke-linejoin:round;stroke-miterlimit:10;stroke-dasharray:none;stroke-opacity:1"
       d="m 226.86,266.79 16.59,16.59 h 23.46 l 16.59,-16.59 v -23.46 l -16.59,-16.59 h -23.46 l -16.59,16.59 z"
       inkscape:connector-curvature="0" /><path
       id="path32"
       style="fill:#1f567d;fill-opacity:0.54901997;fill-rule:evenodd;stroke:none"
       d="m 226.86,210.15 16.59,16.59 h 23.58 l 16.59,-16.59 V 186.69 L 267.03,170.1 h -23.58 l -16.59,16.59 z"
       inkscape:connector-curvature="0" /><path
       id="path34"
       style="fill:none;stroke:#ffffff;stroke-width:3;stroke-linecap:butt;stroke-linejoin:round;stroke-miterlimit:10;stroke-dasharray:none;stroke-opacity:1"
       d="m 226.86,210.15 16.59,16.59 h 23.58 l 16.59,-16.59 V 186.69 L 267.03,170.1 h -23.58 l -16.59,16.59 z"
       inkscape:connector-curvature="0" /><path
       id="path36"
       style="fill:#1f567d;fill-opacity:0.41176004;fill-rule:evenodd;stroke:none"
       d="m 283.62,323.55 16.59,16.59 h 23.46 l 16.59,-16.59 V 300.09 L 323.67,283.5 h -23.46 l -16.59,16.59 z"
       inkscape:connector-curvature="0" /><path
       id="path38"
       style="fill:none;stroke:#ffffff;stroke-width:3;stroke-linecap:butt;stroke-linejoin:round;stroke-miterlimit:10;stroke-dasharray:none;stroke-opacity:1"
       d="m 283.62,323.55 16.59,16.59 h 23.46 l 16.59,-16.59 V 300.09 L 323.67,283.5 h -23.46 l -16.59,16.59 z"
       inkscape:connector-curvature="0" /><path
       id="path40"
       style="fill:#1f567d;fill-opacity:0.54901997;fill-rule:evenodd;stroke:none"
       d="m 170.22,266.79 16.59,16.59 h 23.46 l 16.59,-16.59 v -23.46 l -16.59,-16.59 h -23.46 l -16.59,16.59 z"
       inkscape:connector-curvature="0" /><path
       id="path42"
       style="fill:none;stroke:#ffffff;stroke-width:3;stroke-linecap:butt;stroke-linejoin:round;stroke-miterlimit:10;stroke-dasharray:none;stroke-opacity:1"
       d="m 170.22,266.79 16.59,16.59 h 23.46 l 16.59,-16.59 v -23.46 l -16.59,-16.59 h -23.46 l -16.59,16.59 z"
       inkscape:connector-curvature="0" /><path
       id="path44"
       style="fill:#1f567d;fill-opacity:0.54901997;fill-rule:evenodd;stroke:none"
       d="m 226.86,323.55 16.59,16.59 h 23.58 l 16.59,-16.59 V 300.09 L 267.03,283.5 h -23.58 l -16.59,16.59 z"
       inkscape:connector-curvature="0" /><path
       id="path46"
       style="fill:none;stroke:#ffffff;stroke-width:3;stroke-linecap:butt;stroke-linejoin:round;stroke-miterlimit:10;stroke-dasharray:none;stroke-opacity:1"
       d="m 226.86,323.55 16.59,16.59 h 23.58 l 16.59,-16.59 V 300.09 L 267.03,283.5 h -23.58 l -16.59,16.59 z"
       inkscape:connector-curvature="0" /><path
       id="path48"
       style="fill:#1f567d;fill-opacity:0.54901997;fill-rule:evenodd;stroke:none"
       d="m 340.26,323.55 16.59,16.59 h 23.46 l 16.59,-16.59 v -23.58 l -16.59,-16.59 h -23.46 l -16.59,16.59 z"
       inkscape:connector-curvature="0" /><path
       id="path50"
       style="fill:none;stroke:#ffffff;stroke-width:3;stroke-linecap:butt;stroke-linejoin:round;stroke-miterlimit:10;stroke-dasharray:none;stroke-opacity:1"
       d="m 340.26,323.55 16.59,16.59 h 23.46 l 16.59,-16.59 v -23.58 l -16.59,-16.59 h -23.46 l -16.59,16.59 z"
       inkscape:connector-curvature="0" /><path
       id="path52"
       style="fill:#1f567d;fill-opacity:0.25097997;fill-rule:evenodd;stroke:none"
       d="m 283.62,380.19 16.59,16.59 h 23.46 l 16.59,-16.59 v -23.46 l -16.59,-16.59 h -23.46 l -16.59,16.59 z"
       inkscape:connector-curvature="0" /><path
       id="path54"
       style="fill:none;stroke:#ffffff;stroke-width:3;stroke-linecap:butt;stroke-linejoin:round;stroke-miterlimit:10;stroke-dasharray:none;stroke-opacity:1"
       d="m 283.62,380.19 16.59,16.59 h 23.46 l 16.59,-16.59 v -23.46 l -16.59,-16.59 h -23.46 l -16.59,16.59 z"
       inkscape:connector-curvature="0" /><path
       id="path56"
       style="fill:#1f567d;fill-opacity:0.25097997;fill-rule:evenodd;stroke:none"
       d="m 340.26,266.79 16.59,16.59 h 23.46 l 16.59,-16.59 v -23.46 l -16.59,-16.59 h -23.46 l -16.59,16.59 z"
       inkscape:connector-curvature="0" /><path
       id="path58"
       style="fill:none;stroke:#ffffff;stroke-width:3;stroke-linecap:butt;stroke-linejoin:round;stroke-miterlimit:10;stroke-dasharray:none;stroke-opacity:1"
       d="m 340.26,266.79 16.59,16.59 h 23.46 l 16.59,-16.59 v -23.46 l -16.59,-16.59 h -23.46 l -16.59,16.59 z"
       inkscape:connector-curvature="0" /><path
       id="path60"
       style="fill:#1f567d;fill-opacity:0.25097997;fill-rule:evenodd;stroke:none"
       d="m 226.86,380.19 16.59,16.59 h 23.58 l 16.59,-16.59 v -23.46 l -16.59,-16.59 h -23.58 l -16.59,16.59 z"
       inkscape:connector-curvature="0" /><path
       id="path62"
       style="fill:none;stroke:#ffffff;stroke-width:3;stroke-linecap:butt;stroke-linejoin:round;stroke-miterlimit:10;stroke-dasharray:none;stroke-opacity:1"
       d="m 226.86,380.19 16.59,16.59 h 23.58 l 16.59,-16.59 v -23.46 l -16.59,-16.59 h -23.58 l -16.59,16.59 z"
       inkscape:connector-curvature="0" /><path
       id="path64"
       style="fill:#ffffff;fill-opacity:1;fill-rule:evenodd;stroke:none"
       d="m 206.46,19.98 h 153.12 v 124.8 H 206.46 Z"
       inkscape:connector-curvature="0" /><path
       id="path66"
       style="fill:none;stroke:#ffffff;stroke-width:2.03999996;stroke-linecap:butt;stroke-linejoin:round;stroke-miterlimit:10;stroke-dasharray:none;stroke-opacity:1"
       d="m 206.46,19.98 h 153.12 v 124.8 H 206.46 Z"
       inkscape:connector-curvature="0" /></g></svg>
